<svg width="40" height="40" viewBox="0 0 40 40" fill="none" xmlns="http://www.w3.org/2000/svg">
<path d="M40 20C40 8.9543 31.0457 0 20 0C8.9543 0 0 8.9543 0 20C0 31.0457 8.9543 40 20 40C31.0457 40 40 31.0457 40 20Z" fill="#0F171C"/>
<path fill-rule="evenodd" clip-rule="evenodd" d="M25.5213 11H14.4787C12.561 11 11 12.56 11 14.4787V25.5213C11 27.44 12.561 29 14.4787 29H25.5213C27.439 29 29 27.44 29 25.5213V14.4787C29 12.56 27.439 11 25.5213 11ZM26.6089 13.0021L27 13V15.9907L24.0104 16L24 13.0093L26.6089 13.0021ZM17.5672 18.2507C18.1124 17.4951 18.9983 17 19.9995 17C21.0007 17 21.8866 17.4951 22.4318 18.2507C22.7875 18.7438 23 19.3471 23 20.0005C23 21.6541 21.6541 23 19.9995 23C18.3459 23 17 21.6541 17 20.0005C17 19.3471 17.2125 18.7438 17.5672 18.2507ZM27 25.2928C27 26.2344 26.2527 27 25.3336 27H14.6664C13.7473 27 13 26.2344 13 25.2928V18H15.5968C15.3718 18.5656 15.2461 19.1825 15.2461 19.8287C15.2461 22.5141 17.3787 24.7 20 24.7C22.6223 24.7 24.7549 22.5141 24.7549 19.8287C24.7549 19.1825 24.6271 18.5656 24.4043 18H27V25.2928Z" fill="white"/>
</svg>
