<svg width="40" height="40" viewBox="0 0 40 40" fill="none" xmlns="http://www.w3.org/2000/svg">
<path d="M40 20C40 8.9543 31.0457 0 20 0C8.9543 0 0 8.9543 0 20C0 31.0457 8.9543 40 20 40C31.0457 40 40 31.0457 40 20Z" fill="#0F171C"/>
<path fill-rule="evenodd" clip-rule="evenodd" d="M12.8887 16.2855H16.103V26.9998H12.8887V16.2855ZM14.4878 15.214H14.4687C13.5101 15.214 12.8887 14.5059 12.8887 13.6091C12.8887 12.694 13.5285 11.9998 14.5062 11.9998C15.4831 11.9998 16.0838 12.6922 16.103 13.6065C16.103 14.5032 15.4831 15.214 14.4878 15.214ZM27.8887 26.9998H24.6638V21.5076C24.6638 20.0703 24.1594 19.0901 23.0501 19.0901C22.2016 19.0901 21.7298 19.7512 21.5101 20.3903C21.4278 20.6184 21.4407 20.9375 21.4407 21.2575V26.9998H18.2458C18.2458 26.9998 18.287 17.2717 18.2458 16.3875H21.4407V18.0528C21.6294 17.3247 22.6503 16.2855 24.2795 16.2855C26.3007 16.2855 27.8887 17.8128 27.8887 21.0985V26.9998Z" fill="white"/>
</svg>
