<svg width="136" height="40" viewBox="0 0 136 40" fill="none" xmlns="http://www.w3.org/2000/svg">
<g clip-path="url(#clip0_17495_79699)">
<path fill-rule="evenodd" clip-rule="evenodd" d="M124.553 18.6007C123.814 19.1053 122.741 19.3547 121.273 19.3547H120.636H119.817L120.934 13.4503H121.5H122.004C123.223 13.4503 124.113 13.6424 124.726 14.0322C125.206 14.3379 125.774 14.943 125.774 16.0914C125.774 17.475 125.113 18.2194 124.553 18.6007ZM37.7068 26.0109H26.4402L27.1684 22.1515H34.2352L35.0383 17.8046H28.0393L28.7159 13.985H39.9628L37.7068 26.0109ZM130.623 10.6723C128.966 9.56026 126.459 9 123.173 9H114.566L111.366 26.0114H100.091L100.814 22.1521H107.607L108.414 17.8171L101.626 17.8291L102.353 13.9862H109.348L110.279 9.0006H96.0685L93.0315 25.1387H87.8209L90.88 9.00065H83.4511L80.4141 25.1387H75.3334L78.3954 9.00065H70.974L67.7664 26.0121H56.411L57.1265 22.1527H63.9502L64.7538 17.8427L57.9406 17.8366L58.6641 13.9863H65.7373L66.6634 9.00073H22.3924L19.8724 22.4818L14.8521 9.00016H7.14702L3 31H10.3581L12.8677 17.1485L17.74 31H44.1133L47.3192 13.9857H51.4459L48.2383 31H117.634L119.644 20.2589L122.903 31H130.265L126.892 22.2238L127.662 22.0607C129.358 21.705 130.687 20.9385 131.608 19.7901C132.531 18.6309 133 17.1428 133 15.3552C133.001 13.2732 132.224 11.7422 130.623 10.6723Z" fill="#8DC640"/>
</g>
<defs>
<clipPath id="clip0_17495_79699">
<rect width="136" height="40" fill="white"/>
</clipPath>
</defs>
</svg>
