<svg width="96" height="42" viewBox="0 0 96 42" fill="none" xmlns="http://www.w3.org/2000/svg">
<g clip-path="url(#clip0_7545_24676)">
<path d="M16.7315 16.5159H15.9412V21H16.6707C17.6921 21 18.5433 20.8147 19.0905 20.4441C19.6377 20.1353 19.9417 19.5176 19.9417 18.727C19.9417 17.257 18.8595 16.5159 16.7437 16.5159H16.7315Z" fill="#606569"/>
<path d="M46.2186 29.7829V12.9582H52.5659V29.7459L62.6584 26.5218L50.9365 0L0 2.89059L14.1416 42L52.4565 29.7829H46.2308H46.2186ZM25.3163 21.3088C24.8907 22.05 24.2949 22.7171 23.5045 23.2112C22.7141 23.7053 21.7535 24.0759 20.6592 24.3106C19.5769 24.5576 18.361 24.6812 16.9748 24.6812H16.002V29.7212H9.71552V12.9582H17.0842C19.8688 12.9582 22.0332 13.4524 23.6139 14.3665C25.1825 15.2929 25.9729 16.7629 25.9729 18.6653C25.9729 19.6535 25.7297 20.5059 25.3041 21.3088H25.3163ZM43.6286 29.2271C42.6559 29.4741 42.5464 29.5359 41.5737 29.7212C40.6009 29.9065 39.5187 30.03 38.2541 30.03C36.5031 30.03 34.9345 29.8447 33.597 29.4124C32.2108 28.98 31.0556 28.4241 30.095 27.6953C29.1344 26.9665 28.4048 26.04 27.9184 24.99C27.432 23.8906 27.1889 22.7171 27.1889 21.4324C27.1889 20.1476 27.432 18.9741 27.9792 17.8747C28.5264 16.8247 29.2438 15.9106 30.2166 15.1076C31.1894 14.3665 32.3324 13.7612 33.6578 13.3288C34.9832 12.8965 36.4423 12.7112 38.0109 12.7112C39.2147 12.7112 40.3699 12.7729 41.3913 12.9582C42.0722 13.1229 42.6761 13.3082 43.203 13.5141V17.9982C42.5951 17.6276 41.8776 17.3188 41.0873 17.1335C40.2969 16.8865 39.4579 16.7629 38.6067 16.7629C37.1597 16.7629 36.0046 17.1953 35.1048 17.9241C34.1928 18.7271 33.7794 19.8265 33.7794 21.3582C33.7794 22.0994 33.901 22.7665 34.2049 23.3841C34.5089 23.94 34.8737 24.4341 35.3479 24.7924C35.8343 25.1629 36.3694 25.4718 37.0381 25.6571C37.7069 25.8424 38.3635 25.9659 39.0931 25.9659C39.8227 25.9659 40.6009 25.9041 41.3305 25.7188C42.06 25.5335 42.8383 25.3482 43.6286 24.9776V29.2147V29.2271ZM46.705 4.97824C47.4346 4.29882 48.3344 3.99 49.4288 3.99C50.5231 3.99 51.4229 4.29882 52.1525 4.97824C52.8821 5.59588 53.2347 6.51 53.2347 7.68353C53.2347 8.78294 52.8699 9.70941 52.1525 10.3271C51.4351 10.9447 50.5231 11.3153 49.4288 11.3153C48.3344 11.3153 47.4346 11.0065 46.705 10.3271C45.9754 9.70941 45.6228 8.79529 45.6228 7.68353C45.6228 6.52235 45.9876 5.65765 46.705 4.97824Z" fill="#606569"/>
<path d="M65.7592 12.9583H70.2218C71.3162 12.9583 72.2646 13.1683 73.0428 13.5883C73.821 14.0083 74.429 14.6259 74.8425 15.4412C75.2559 16.2565 75.4626 17.2571 75.4626 18.443C75.4626 19.6412 75.2559 20.6541 74.8425 21.4941C74.429 22.3341 73.8332 22.9765 73.0428 23.4212C72.2525 23.8659 71.3162 24.0882 70.2096 24.0882H65.7471V12.9583H65.7592ZM69.8449 21.8153C70.4528 21.8153 70.9514 21.6918 71.377 21.4447C71.8026 21.1977 72.1065 20.8271 72.3133 20.333C72.52 19.8388 72.6294 19.2212 72.6294 18.48C72.6294 17.7759 72.52 17.183 72.3011 16.7012C72.0822 16.2194 71.7661 15.8612 71.3526 15.6141C70.9392 15.3671 70.4407 15.2435 69.857 15.2435H68.5559V21.8153H69.857H69.8449Z" fill="#606569"/>
<path d="M78.6848 23.903C78.016 23.6436 77.4931 23.2607 77.1162 22.7542C76.7392 22.2478 76.5325 21.6548 76.4839 20.9383V20.8025H79.0617V20.8766C79.1225 21.1236 79.2441 21.3336 79.4265 21.5066C79.6089 21.6795 79.8521 21.8278 80.1318 21.9266C80.4114 22.0254 80.7397 22.0748 81.0924 22.0748C81.445 22.0748 81.7855 22.0254 82.0408 21.9266C82.2962 21.8278 82.5151 21.6919 82.661 21.5189C82.8069 21.346 82.8798 21.136 82.8798 20.9136C82.8798 20.5925 82.7461 20.3454 82.4786 20.1725C82.2111 19.9995 81.749 19.8513 81.1167 19.7278L79.998 19.5054C78.9158 19.2954 78.089 18.9248 77.5296 18.3936C76.9703 17.8625 76.6784 17.1583 76.6784 16.306C76.6784 15.5772 76.8608 14.9595 77.2378 14.4407C77.6147 13.9219 78.1254 13.5019 78.7821 13.2178C79.4387 12.9336 80.1804 12.7854 81.0194 12.7854C81.9314 12.7854 82.7218 12.9213 83.3541 13.193C83.9864 13.4648 84.4971 13.8601 84.8497 14.3542C85.2023 14.8483 85.3969 15.4413 85.4212 16.1083V16.2689H82.8434V16.1825C82.8069 15.9354 82.7096 15.7254 82.5515 15.5525C82.3935 15.3795 82.1867 15.2436 81.9314 15.1448C81.676 15.046 81.372 14.9966 81.0437 14.9966C80.7154 14.9966 80.4114 15.046 80.1804 15.1448C79.9494 15.2436 79.767 15.3795 79.6332 15.5401C79.4995 15.7007 79.4508 15.8983 79.4508 16.1083C79.4508 16.4172 79.5846 16.6519 79.8521 16.8248C80.1196 16.9978 80.5452 17.146 81.141 17.2572L82.2597 17.4672C83.0379 17.6154 83.6824 17.8254 84.1809 18.0972C84.6795 18.3689 85.0564 18.7148 85.2996 19.1348C85.5428 19.5548 85.6644 20.0613 85.6644 20.6542C85.6644 21.4078 85.482 22.0501 85.1172 22.5936C84.7524 23.1372 84.2295 23.5572 83.5364 23.8536C82.8434 24.1501 82.0165 24.2983 81.0559 24.2983C80.1439 24.2983 79.3535 24.1625 78.6848 23.903Z" fill="#606569"/>
<path d="M88.8137 23.903C88.1449 23.6436 87.622 23.2607 87.2451 22.7542C86.8681 22.2478 86.6614 21.6548 86.6128 20.9383V20.8025H89.1906V20.8766C89.2514 21.1236 89.373 21.3336 89.5554 21.5066C89.7378 21.6795 89.981 21.8278 90.2607 21.9266C90.5403 22.0254 90.8686 22.0748 91.2213 22.0748C91.5739 22.0748 91.9144 22.0254 92.1697 21.9266C92.4251 21.8278 92.6439 21.6919 92.7899 21.5189C92.9358 21.346 93.0087 21.136 93.0087 20.9136C93.0087 20.5925 92.875 20.3454 92.6075 20.1725C92.34 19.9995 91.8779 19.8513 91.2456 19.7278L90.1269 19.5054C89.0447 19.2954 88.2179 18.9248 87.6585 18.3936C87.0992 17.8625 86.8073 17.1583 86.8073 16.306C86.8073 15.5772 86.9897 14.9595 87.3667 14.4407C87.7436 13.9219 88.2543 13.5019 88.911 13.2178C89.5676 12.9336 90.3093 12.7854 91.1483 12.7854C92.0603 12.7854 92.8507 12.9213 93.483 13.193C94.1153 13.4648 94.626 13.8601 94.9786 14.3542C95.3312 14.8483 95.5258 15.4413 95.5501 16.1083V16.2689H92.9723V16.1825C92.9358 15.9354 92.8385 15.7254 92.6804 15.5525C92.5224 15.3795 92.3156 15.2436 92.0603 15.1448C91.8049 15.046 91.501 14.9966 91.1726 14.9966C90.8443 14.9966 90.5403 15.046 90.3093 15.1448C90.0783 15.2436 89.8959 15.3795 89.7621 15.5401C89.6284 15.7007 89.5797 15.8983 89.5797 16.1083C89.5797 16.4172 89.7135 16.6519 89.981 16.8248C90.2485 16.9978 90.6741 17.146 91.2699 17.2572L92.3886 17.4672C93.1668 17.6154 93.8113 17.8254 94.3098 18.0972C94.8084 18.3689 95.1853 18.7148 95.4285 19.1348C95.6717 19.5548 95.7933 20.0613 95.7933 20.6542C95.7933 21.4078 95.6109 22.0501 95.2461 22.5936C94.8813 23.1372 94.3585 23.5572 93.6654 23.8536C92.9723 24.1501 92.1454 24.2983 91.1848 24.2983C90.2728 24.2983 89.4825 24.1625 88.8137 23.903Z" fill="#606569"/>
<path d="M66.5131 29.5607C66.2456 29.4124 66.0389 29.1901 65.8929 28.906C65.747 28.6218 65.6741 28.276 65.6741 27.8683C65.6741 27.4607 65.747 27.1148 65.8929 26.8307C66.0389 26.5466 66.2456 26.3242 66.5131 26.176C66.7806 26.0277 67.0967 25.9536 67.4615 25.9536C67.7777 25.9536 68.0574 26.0154 68.3005 26.1389C68.5437 26.2624 68.7383 26.4354 68.872 26.6577C69.0058 26.8801 69.0909 27.1271 69.1031 27.3989V27.4236H68.2033V27.3866C68.179 27.2507 68.1303 27.1395 68.0695 27.0407C68.0087 26.9418 67.9236 26.8677 67.8142 26.806C67.7047 26.7442 67.5831 26.7195 67.4372 26.7195C67.267 26.7195 67.1211 26.7689 66.9995 26.8554C66.8779 26.9418 66.7806 27.0777 66.7076 27.2507C66.6347 27.4236 66.6104 27.6213 66.6104 27.856C66.6104 28.103 66.6468 28.3007 66.7076 28.4736C66.7806 28.6466 66.8657 28.7701 66.9995 28.8689C67.1332 28.9677 67.267 29.0048 67.4372 29.0048C67.571 29.0048 67.6926 28.9801 67.802 28.9183C67.9114 28.8566 67.9966 28.7824 68.0574 28.6836C68.1182 28.5848 68.1668 28.4613 68.1911 28.3254V28.3007H69.0909V28.3254C69.0909 28.5971 69.0058 28.8442 68.8599 29.0666C68.714 29.2889 68.5194 29.4618 68.2762 29.5854C68.033 29.7089 67.7534 29.7707 67.4372 29.7707C67.0724 29.7707 66.7563 29.6966 66.4888 29.536L66.5131 29.5607Z" fill="#606569"/>
<path d="M70.2948 29.5484C70.0273 29.3878 69.8206 29.1654 69.6747 28.8813C69.5288 28.5972 69.4558 28.2513 69.4558 27.856C69.4558 27.4607 69.5288 27.1148 69.6747 26.8307C69.8206 26.5466 70.0273 26.3242 70.307 26.1637C70.5867 26.0031 70.8906 25.929 71.2676 25.929C71.6445 25.929 71.9607 26.0031 72.2282 26.1637C72.4957 26.3242 72.7024 26.5466 72.8483 26.8307C72.9943 27.1148 73.0672 27.4607 73.0672 27.856C73.0672 28.2513 72.9943 28.5972 72.8483 28.8813C72.7024 29.1654 72.4957 29.3878 72.2282 29.5484C71.9607 29.709 71.6324 29.7831 71.2676 29.7831C70.9028 29.7831 70.5745 29.709 70.307 29.5484H70.2948ZM71.7175 28.8566C71.8513 28.7578 71.9485 28.6343 72.0093 28.4613C72.0823 28.2884 72.1188 28.0907 72.1188 27.856C72.1188 27.6213 72.0823 27.4113 72.0093 27.2507C71.9364 27.0901 71.8391 26.9542 71.7175 26.8554C71.5959 26.7566 71.4378 26.7195 71.2676 26.7195C71.0974 26.7195 70.9514 26.769 70.8177 26.8554C70.6839 26.9419 70.5867 27.0778 70.5137 27.2507C70.4407 27.4237 70.4043 27.6213 70.4043 27.856C70.4043 28.0907 70.4407 28.3007 70.5137 28.4613C70.5867 28.6343 70.6839 28.7578 70.8055 28.8566C70.9271 28.9554 71.0852 28.9925 71.2554 28.9925C71.4257 28.9925 71.5837 28.9431 71.7175 28.8566Z" fill="#606569"/>
<path d="M73.5049 26.0029H74.5871L75.4991 28.4241H75.5112L76.4232 26.0029H77.4932V29.7088H76.6785V27.3865H76.253L77.1649 26.0894L75.7666 29.6965H75.2315L73.8332 26.0894L74.7452 27.3865H74.3196V29.7088H73.5049V26.0029Z" fill="#606569"/>
<path d="M78.0525 26.0029H78.9766V29.7088H78.0525V26.0029ZM78.5267 27.9176H79.39C79.5846 27.9176 79.7427 27.8682 79.8521 27.7694C79.9615 27.6706 80.0223 27.5223 80.0223 27.3247C80.0223 27.127 79.9615 26.9788 79.8521 26.88C79.7427 26.7812 79.5846 26.7318 79.39 26.7318H78.5267V26.0029H79.6211C79.8886 26.0029 80.1318 26.0523 80.3263 26.1635C80.5209 26.2747 80.679 26.4229 80.7884 26.6206C80.8978 26.8182 80.9586 27.0529 80.9586 27.3123C80.9586 27.5841 80.8978 27.8065 80.7884 28.0041C80.679 28.2018 80.5209 28.35 80.3263 28.4612C80.1196 28.5723 79.8886 28.6218 79.6211 28.6218H78.5267V27.9053V27.9176Z" fill="#606569"/>
<path d="M81.372 26.0029H82.2961V28.9553H83.8039V29.7088H81.3599V26.0029H81.372Z" fill="#606569"/>
<path d="M84.2297 26.0029H85.1539V29.7088H84.2297V26.0029Z" fill="#606569"/>
<path d="M86.7467 26.0029H87.5978V26.8059H87.306L86.4913 29.7088H85.5186L86.7467 26.0029ZM86.4427 28.2265H88.1937L88.4004 28.9059H86.236L86.4427 28.2265ZM87.3182 26.8182V26.0153H87.8775L89.1056 29.7212H88.1329L87.3182 26.8182Z" fill="#606569"/>
<path d="M89.4583 26.0029H90.2486L92.0118 28.597L91.3308 28.1523H91.7199V26.0153H92.6441V29.7212H91.8659L90.0905 27.1023L90.7593 27.547H90.3824V29.7088H89.4583V26.0029Z" fill="#606569"/>
<path d="M94.0547 26.7689H93.0454V26.0154H95.988V26.7689H94.9788V29.7213H94.0547V26.7689Z" fill="#606569"/>
</g>
<defs>
<clipPath id="clip0_7545_24676">
<rect width="96" height="42" fill="white"/>
</clipPath>
</defs>
</svg>
