<svg width="136" height="40" viewBox="0 0 136 40" fill="none" xmlns="http://www.w3.org/2000/svg">
<g clip-path="url(#clip0_17495_79696)">
<path d="M85.8977 12.7261C87.7574 12.7261 89.2632 11.2207 89.2632 9.36451C89.2632 7.50829 87.7564 6 85.8977 6C84.0391 6 82.5352 7.50732 82.5352 9.36451C82.5351 9.80604 82.622 10.2433 82.7909 10.6512C82.9598 11.0592 83.2075 11.4299 83.5197 11.7421C83.832 12.0544 84.2027 12.3021 84.6107 12.4711C85.0188 12.6401 85.4561 12.7261 85.8977 12.7261ZM60.1212 14.5392C59.9692 14.9312 58.8761 18.0085 56.2322 21.2064V7.52888L49.1886 8.92055V33.7158H56.2332V26.0518C58.2742 29.1096 59.282 33.7158 59.282 33.7158H67.7196C66.8864 30.2464 63.2347 23.8516 63.2347 23.8516C65.4042 21.054 67.0765 17.9043 68.1784 14.5401L60.1212 14.5392ZM78.6394 14.2804C72.3311 14.4833 69.1274 17.3127 69.1274 22.9382V33.7148H76.0112V24.9277C76.0112 21.5602 76.4523 20.1254 80.4501 19.9784V14.3824C79.7776 14.2393 78.6394 14.2844 78.6394 14.2844M37.3757 17.2735C36.513 17.2176 34.5151 17.0873 34.5151 15.2899C34.5151 13.121 37.3904 13.121 38.4698 13.121C40.3667 13.121 42.8224 13.6797 44.5772 14.206C45.1748 14.4545 45.7789 14.6872 46.3888 14.9037L46.4672 14.9253V8.98229L46.3614 8.95093C44.2909 8.22569 41.8842 7.52986 37.4208 7.52986C29.7253 7.52986 27 12.0106 27 15.8505C27 18.0634 27.949 23.2724 36.7611 23.8732C37.5081 23.9192 39.4903 24.0329 39.4903 25.8921C39.4903 27.4258 37.8669 28.3304 35.1377 28.3304C32.1477 28.3304 29.243 27.5679 27.4813 26.8447V32.9631C30.1204 33.654 33.0947 34 36.5817 34C44.1056 34 47.475 29.7603 47.475 25.5579C47.475 20.7929 43.7047 17.6979 37.3777 17.2735M82.4882 33.7187H89.3151V14.5627H82.4862L82.4882 33.7187ZM102.171 8.75198V33.7187H109V7.53182L102.171 8.75198ZM92.2081 8.75198L99.0292 7.53182V33.7187H92.2081V8.75002V8.75198Z" fill="#862565"/>
</g>
<defs>
<clipPath id="clip0_17495_79696">
<rect width="136" height="40" fill="white"/>
</clipPath>
</defs>
</svg>
