<svg width="40" height="40" viewBox="0 0 40 40" fill="none" xmlns="http://www.w3.org/2000/svg">
<path d="M40 20C40 8.9543 31.0457 0 20 0C8.9543 0 0 8.9543 0 20C0 31.0457 8.9543 40 20 40C31.0457 40 40 31.0457 40 20Z" fill="#0F171C"/>
<path fill-rule="evenodd" clip-rule="evenodd" d="M30 20.7549C30 22.3737 29.8 23.9924 29.8 23.9924C29.8 23.9924 29.605 25.3699 29.005 25.9774C28.245 26.7737 27.3925 26.7774 27.0012 26.8237C24.2025 27.0262 20 27.0324 20 27.0324C20 27.0324 14.8 26.9849 13.2 26.8324C12.755 26.7487 11.755 26.7737 10.995 25.9774C10.395 25.3699 10.2 23.9924 10.2 23.9924C10.2 23.9924 10 22.3737 10 20.7549V19.2374C10 17.6187 10.2 16.0012 10.2 16.0012C10.2 16.0012 10.395 14.6224 10.995 14.0149C11.755 13.2187 12.6075 13.2149 12.9987 13.1687C15.7975 12.9662 19.9963 12.9662 19.9963 12.9662H20.0037C20.0037 12.9662 24.2025 12.9662 27.0012 13.1687C27.3925 13.2149 28.245 13.2187 29.005 14.0149C29.605 14.6224 29.8 16.0012 29.8 16.0012C29.8 16.0012 30 17.6187 30 19.2374V20.7549ZM17.9352 22.5937L23.339 19.7937L17.934 16.9737L17.9352 22.5937Z" fill="white"/>
</svg>
